<svg xmlns="http://www.w3.org/2000/svg" xmlns:xlink="http://www.w3.org/1999/xlink" viewBox="0 0 954.5 759.5"><defs><clipPath id="a" transform="translate(-61.2 -190.1)"><rect x="394.6" y="169" width="340.8" height="340.83" style="fill:none"/></clipPath><clipPath id="c" transform="translate(-61.2 -190.1)"><rect x="673.7" y="169" width="413.3" height="413.33" style="fill:none"/></clipPath><clipPath id="d" transform="translate(-61.2 -190.1)"><rect x="34.8" y="193.3" width="346.7" height="346.67" style="fill:none"/></clipPath><clipPath id="f" transform="translate(-61.2 -190.1)"><rect x="124.8" y="403" width="830.4" height="647.33" style="fill:none"/></clipPath></defs><g style="clip-path:url(#a)"><g style="clip-path:url(#a)"><path d="M449.7,480.8a8,8,0,0,0,7.9,7.9H671.7a8,8,0,0,0,7.9-7.9V398H449.7Z" transform="translate(-61.2 -190.1)" style="fill:#dab827"/><path d="M616,190.1H457.6a8,8,0,0,0-7.9,7.9V398H679.6V254.7H616Z" transform="translate(-61.2 -190.1)" style="fill:#eaeaea"/><polygon points="554.8 64.6 618.4 64.6 554.8 0 554.8 64.6" style="fill:#cdcccc"/></g><text transform="translate(462 283.2) scale(1.15 1)" style="font-size:83.9926986694336px;fill:#fff;font-family:MyriadPro-Regular, Myriad Pro">JS</text><text transform="translate(435.7 154) scale(1 1.53)" style="font-size:83.3289794921875px;fill:#dab827;font-family:ArialRoundedMTBold, Arial Rounded MT Bold">{ ; }</text></g><g style="clip-path:url(#c)"><polygon points="850.5 68.4 819.2 122.5 788 68.4 684 68.4 819.2 302.6 954.5 68.4 850.5 68.4" style="fill:#42b883"/><polygon points="850.5 68.4 819.2 122.5 788 68.4 738.1 68.4 819.2 208.9 900.4 68.4 850.5 68.4" style="fill:#35495e"/></g><g style="clip-path:url(#d)"><g style="clip-path:url(#d)"><ellipse cx="146.9" cy="176.5" rx="141.3" ry="54" style="fill:none;stroke:#55c1de;stroke-miterlimit:10;stroke-width:11.234567901234822px"/><ellipse cx="208.1" cy="366.7" rx="141.3" ry="54" transform="translate(-274.7 173.4) rotate(-60)" style="fill:none;stroke:#55c1de;stroke-miterlimit:10;stroke-width:11.234567901234822px"/><ellipse cx="208.1" cy="366.7" rx="54" ry="141.3" transform="matrix(0.87, -0.5, 0.5, 0.87, -216.63, -36.96)" style="fill:none;stroke:#55c1de;stroke-miterlimit:10;stroke-width:11.234567901234822px"/><path d="M234.3,366.7a26.2,26.2,0,1,1-26.2-26.2,26.1,26.1,0,0,1,26.2,26.2" transform="translate(-61.2 -190.1)" style="fill:#55c1de"/></g></g><g style="clip-path:url(#f)"><g style="clip-path:url(#f)"><path d="M710.2,581H394.1V553.2a46.8,46.8,0,0,0-46.7-46.7H303.9a46.8,46.8,0,0,0-46.7,46.7V885.8a46.8,46.8,0,0,0,46.7,46.7H710.2a46.8,46.8,0,0,0,46.7-46.7V627.7A46.8,46.8,0,0,0,710.2,581" transform="translate(-61.2 -190.1)" style="fill:#efeae1"/><path d="M710.2,581H394.1V553.2a46.8,46.8,0,0,0-46.7-46.7H303.9a46.8,46.8,0,0,0-46.7,46.7V885.8a46.8,46.8,0,0,0,46.7,46.7H710.2a46.8,46.8,0,0,0,46.7-46.7V627.7A46.8,46.8,0,0,0,710.2,581Z" transform="translate(-61.2 -190.1)" style="fill:none;stroke:#1b3864;stroke-miterlimit:10;stroke-width:15.378097425318686px"/><path d="M712.4,942,295,937.8c-18.9-.2-30.5-15.5-25.9-34.1l54.2-215.1c4.7-18.6,24.1-34.1,43.3-34.3l421.6-4.2c20.3-.2,32.8,15.5,27.8,34.8L758.1,907.5c-5,19.2-25.6,34.7-45.7,34.5" transform="translate(-61.2 -190.1)" style="fill:#fac13c"/><path d="M712.4,942,295,937.8c-18.9-.2-30.5-15.5-25.9-34.1l54.2-215.1c4.7-18.6,24.1-34.1,43.3-34.3l421.6-4.2c20.3-.2,32.8,15.5,27.8,34.8L758.1,907.5C753.1,926.7,732.5,942.2,712.4,942Z" transform="translate(-61.2 -190.1)" style="fill:none;stroke:#1b3864;stroke-miterlimit:10;stroke-width:15.378097425318686px"/></g></g></svg>